<?xml version="1.0" encoding="UTF-8"?>
<svg width="1071px" height="296px" viewBox="0 0 1071 296" version="1.1" xmlns="http://www.w3.org/2000/svg" xmlns:xlink="http://www.w3.org/1999/xlink">
    <!-- Generator: Sketch 48.2 (47327) - http://www.bohemiancoding.com/sketch -->
    <title>alipay</title>
    <desc>Created with Sketch.</desc>
    <defs></defs>
    <g id="Page-1" stroke="none" stroke-width="1" fill="none" fill-rule="evenodd">
        <g id="alipay" fill-rule="nonzero">
            <ellipse id="Oval" fill="#009FE3" cx="618" cy="61" rx="20" ry="18"></ellipse>
            <path d="M529,63 L529,220 L567,220 L567,54 L538,54 C533,54 529,58 529,63 Z M599,107 L599,220 L637,220 L637,98 L608,98 C603,98 599,102 599,107 Z M740,95 C723,95 711,104 705,109 L705,98 L676,98 C671,98 667,102 667,107 L667,269 L705,269 L705,215 C711,219 719,223 730,223 C765,223 792,192 792,153 C792,115 764,95 740,95 Z M728,209 C720,209 712,202 705,195 L705,129 C711,123 721,115 730,115 C743,115 755,133 755,159 C755,185 743,209 728,209 Z M865,95 C831,95 820,102 820,102 L824,111 C824,111 837,106 857,106 C880,106 882,118 882,133 L882,140 C877,139 868,137 856,137 C839,137 808,144 808,179 C808,215 835,223 853,223 C864,223 875,217 882,213 L882,220 L920,220 L920,133 C920,108 898,95 865,95 Z M862,206 C846,206 837,197 837,180 C837,162 854,152 868,152 C875,152 879,154 882,156 L882,198 C877,202 871,206 862,206 Z M1071,95 L1045,95 L1011,173 L1010,171 L971,95 L932,95 L992,211 L993,214 L987,228 C977,247 950,246 950,246 L950,262 L970,262 C978,261 997,256 1005,237 L1024,197 L1071,95 Z M435,54 L419,54 L406,81 L339,220 L365,220 L378,192 L457,192 L470,220 L512,220 L440,64 L435,54 Z M452,181 L383,181 L418,108 L452,181 Z" id="Shape" fill="#3D3A39"></path>
            <path d="M297,46 L297,250 C297,276 276,296 250,296 L47,296 C21,296 0,276 0,250 L0,46 C0,21 21,0 47,0 L250,0 C276,0 297,21 297,46 Z" id="Shape" fill="#009FE3"></path>
            <path d="M198,167 C214,137 224,106 224,106 L165,106 L165,86 L237,86 L237,73 L165,73 L165,40 L131,40 L131,73 L59,73 L59,86 L131,86 L131,106 L70,106 L70,117 L188,117 C188,117 181,138 171,157 C139,148 110,141 86,141 C30,141 18,169 20,195 C22,215 38,246 85,246 C127,246 162,221 183,192 C224,210 266,233 297,250 L297,201 L198,167 Z M78,228 C38,228 32,206 31,192 C31,181 39,159 83,159 C100,159 126,167 156,180 C139,202 112,228 78,228 Z" id="Shape" fill="#FFFFFF"></path>
        </g>
    </g>
</svg>