<svg xmlns="http://www.w3.org/2000/svg" width="1071" height="297" version="1">
  <g transform="translate(-94 -151)">
    <ellipse cx="712" cy="212" fill="#009fe3" rx="20" ry="18"/>
    <path fill="#3d3a39" d="M623 214v157h38V205h-29c-5 0-9 4-9 9zm70 44v113h38V249h-29c-5 0-9 4-9 9zm141-12c-17 0-29 9-35 14v-11h-29c-5 0-9 4-9 9v162h38v-54c6 4 14 8 25 8 35 0 62-31 62-70 0-38-28-58-52-58zm-12 114c-8 0-16-7-23-14v-66c6-6 16-14 25-14 13 0 25 18 25 44s-12 50-27 50zm137-114c-34 0-45 7-45 7l4 9s13-5 33-5c23 0 25 12 25 27v7c-5-1-14-3-26-3-17 0-48 7-48 42 0 36 27 44 45 44 11 0 22-6 29-10v7h38v-87c0-25-22-38-55-38zm-3 111c-16 0-25-9-25-26 0-18 17-28 31-28 7 0 11 2 14 4v42c-5 4-11 8-20 8zm209-111h-26l-34 78-1-2-39-76h-39l60 116 1 3-6 14c-10 19-37 18-37 18v16h20c8-1 27-6 35-25l19-40 47-102zm-636-41h-16l-13 27-67 139h26l13-28h79l13 28h42l-72-156-5-10zm17 127h-69l35-73 34 73z"/>
    <path fill="#009fe3" d="M391 197v204c0 26-21 46-47 46H141c-26 0-47-20-47-46V197c0-25 21-46 47-46h203c26 0 47 21 47 46z"/>
    <path fill="#fff" d="M292 318c16-30 26-61 26-61h-59v-20h72v-13h-72v-33h-34v33h-72v13h72v20h-61v11h118s-7 21-17 40c-32-9-61-16-85-16-56 0-68 28-66 54 2 20 18 51 65 51 42 0 77-25 98-54 41 18 83 41 114 58v-49l-99-34zm-120 61c-40 0-46-22-47-36 0-11 8-33 52-33 17 0 43 8 73 21-17 22-44 48-78 48z"/>
  </g>
  <path fill="#2677e2" d="M348 1914c4 2 8 1 11 2 9 1 16 7 20 15 2 5 2 11 2 16 0 9 0 17-2 25a117 117 0 0 1-66 86 300 300 0 0 1-59 19l-10 1c-10 3-20 2-30 2l-13-2h-6c-6 0-11-2-17-3-4 0-7-2-11-3l-13-3-14-6a321 321 0 0 1-34-18 191 191 0 0 1-76-97l-5-19-3-15c-3-14-2-28-2-43l2-19 5-23 5-17 5-13 6-10c2-5 4-9 3-14s-4-9-8-11c-6-4-13-5-21-3l-18 6-3 1c-6 1-9-2-6-7 2-7 5-13 10-18 6-7 12-13 20-17a104 104 0 0 1 69-10l10 2c2 1 3 0 4-1a288 288 0 0 1 87-59l15-5 20-5 10-2 7-1c10-1 13 0 23 1a174 174 0 0 1 25 8 57 57 0 0 1 33 34c2 5 3 10 2 15 0 4 1 5 5 5l19 2c9 2 16 6 19 16 2 8 0 14-5 20-7 7-15 12-24 14-11 3-23 3-34 1-5 0-11-2-15-5h-3l1 2c4 4 8 6 12 8l11 3c1 0 3 0 3 2l-3 2-18 5a338 338 0 0 0-32 11l-12 5c-2 1-3 3-3 6 0 8 0 17-2 25-3 8-6 16-12 23-6 8-13 15-21 20-7 5-14 9-22 10-6 2-12 3-18 2l-3-2c-1-2 0-3 1-4l11-13c4-7 7-14 3-22-1-2-3-4-6-4-5-1-9 0-13 3-10 5-19 12-26 21a132 132 0 0 0-33 67 117 117 0 0 0 9 67 125 125 0 0 0 21 33 121 121 0 0 0 73 39l16 2 3-1-2-1a118 118 0 0 1-69-55c-3-5-6-11-7-17l-3-6-3-12-1-8v-25l3-15 3-11a153 153 0 0 1 8-16c1-1 2-2 3-1l1 3-3 9c-3 10-4 21-4 32 0 7 0 14 2 22l5 17c4 10 10 19 18 27l4 4c6 6 13 10 20 14 8 3 17 5 26 6a86 86 0 0 0 73-26 92 92 0 0 0 23-62 29 29 0 0 1 20-29c2 0 3 0 4-2zm-105-198c0 10 4 16 12 20 6 3 12 3 19-1 1-1 3-1 3-3l-5-1c-7 1-15-5-16-13-2-8 3-17 12-18l2-2-2-1c-13-3-26 8-25 19zm31-7c0-2-2-5-4-5s-5 3-5 5 3 4 5 4 4-2 4-4zm790 166l1 9v6l-1 10v7a131 131 0 0 1-6 23 109 109 0 0 1-27 41c-6 6-13 11-21 15-12 6-24 7-36 6-17-2-31-9-43-21 0 0-1-2-2-1l-1 2-5 26-4 23-3 19-2 11c0 2-1 3-3 3h-40c-1 0-2-1-2-3v-1l4-17 3-20 3-16 3-18 3-17 3-18 3-17 4-21 3-19 6-31 3-20c1-5 3-10 3-16 0-4 2-5 6-5h34c4 0 4 1 4 5l-3 14 1 2c1 1 2-1 2-1 4-5 9-8 15-12s13-6 21-7h20l13 3a58 58 0 0 1 37 37l3 9m-127 52c-1 5 1 10 2 15l5 12c5 7 11 12 20 14 12 3 23 1 33-6 6-5 12-11 16-18a82 82 0 0 0 11-30c2-13 1-25-7-36-7-10-16-15-28-16-8 0-16 2-23 6s-12 9-17 16c-4 6-7 13-9 20s-4 15-3 23zm-473-34c1 9 2 19 7 29a69 69 0 0 0 41 37c8 3 16 4 25 4a101 101 0 0 0 47-11l9-6c3-1 4-1 6 2l11 23 3 5c1 1 1 3-1 4a125 125 0 0 1-35 16 149 149 0 0 1-74 2 113 113 0 0 1-68-53 93 93 0 0 1-10-32l-2-25 1-13 3-15 3-10 6-12a125 125 0 0 1 32-41l5-4 8-6 15-9 9-4 6-2a132 132 0 0 1 73-1l13 4 15 8 11 8 4 3v3l-17 27c-2 2-3 2-5 0l-21-12c-6-3-13-5-20-6a103 103 0 0 0-49 7c-10 4-19 11-27 20-6 6-11 14-15 22a81 81 0 0 0-9 38zm244-32h-11c-2-1-3 0-3 2-3 10-4 21-6 31l-3 18-3 16c-2 7-1 14-1 22 0 2 2 4 5 4 6 1 11-1 16-3 2-1 3-1 3 2l-1 5-4 23c0 2-1 4-4 4-8 2-15 4-23 4h-17c-8-2-14-5-19-12-3-6-3-12-3-18 0-9 2-18 4-27l4-23 3-16 3-21 2-9c1-2 0-2-2-2h-17c-2 0-3-1-2-4l4-24 1-5c0-2 1-2 3-2h17c2 0 3-1 3-3l5-26c0-3 2-5 4-5l17-4 16-3 5-1c2 0 3 1 3 3-3 9-4 18-5 27l-2 8c0 3 1 4 4 4l18-1c5 0 5 1 4 5l-4 23v5c0 2-1 2-3 3h-11zm34 128h-17c-3 0-4-1-3-4l4-23 6-35 5-30 6-31 5-29 2-9 2-2h35c3 0 3 1 3 3l-2 9 1 3c1 1 1 0 2-1l12-9 14-4 6-1c2 0 3 1 2 3l-4 26-1 5c0 4-1 4-4 4-8 1-16 3-23 8-5 5-9 11-11 17l-5 18-4 18a2431 2431 0 0 0-11 62c0 2-1 2-3 2h-17zm95 0h-18c-3 0-3-1-3-4l5-22 6-34 5-30 3-20 6-30 3-20c1-2 2-3 4-3h36c3 0 3 1 3 3l-2 13-5 26-5 29-7 38-6 34-3 17c0 2-1 3-3 3h-19z"/>
  <path fill="#fd9914" d="M348 1914c-1 2-2 2-4 2a29 29 0 0 0-20 29c0 10-1 20-4 29a85 85 0 0 1-118 53c-7-4-14-8-20-14l4 2c9 4 19 6 30 6a78 78 0 0 0 69-45c5-10 7-22 8-34 0-8-1-17-3-25-2-13 5-26 16-31 11-6 24-5 33 5 4 4 7 9 8 16 0 2 2 4 1 7zm547-135a23 23 0 0 1-47 0c1-13 11-23 24-23s23 10 23 23z"/>
  <path fill="#fdfefe" d="M243 1716c-1-11 12-22 25-19l2 1-2 2c-9 1-14 10-12 18 1 8 9 14 16 13l5 1c0 2-2 2-3 3-7 4-13 4-19 1-8-4-12-10-12-20z"/>
  <path fill="#fdfefe" d="M274 1709c0 2-2 4-4 4s-5-2-5-4 3-5 5-5 4 3 4 5z"/>
  <g transform="translate(-94 -151)">
    <linearGradient id="a" x1="197" x2="133" y1="2754" y2="2931" gradientUnits="userSpaceOnUse">
      <stop offset="0" stop-color="#91278f"/>
      <stop offset="0" stop-color="#8f278f"/>
      <stop offset="1" stop-color="#88288f"/>
      <stop offset="1" stop-color="#7d2990"/>
      <stop offset="1" stop-color="#6c2b91"/>
      <stop offset="1" stop-color="#562e91"/>
      <stop offset="1" stop-color="#4a2f92"/>
      <stop offset="1" stop-color="#4a2f92"/>
    </linearGradient>
    <path fill="url(#a)" d="M216 2856l-1-2-8-12c-1-2-2-2-4-1-18 12-36 25-52 39-9 8-17 16-24 26-2 3-5 7-6 12l-1 5v4l-1-2-28-42c-3-4-3-9-2-14 3-9 9-16 15-23 10-10 21-18 32-27l35-26c3-2 3-2 1-4l-8-12-1-2h92l-39 81z"/>
    <linearGradient id="b" x1="135" x2="215" y1="2942" y2="2876" gradientUnits="userSpaceOnUse">
      <stop offset="0" stop-color="#313293"/>
      <stop offset="0" stop-color="#313293"/>
      <stop offset="0" stop-color="#313293"/>
      <stop offset="0" stop-color="#393795"/>
      <stop offset="1" stop-color="#4d459c"/>
      <stop offset="1" stop-color="#5a4da0"/>
      <stop offset="1" stop-color="#5e50a1"/>
    </linearGradient>
    <path fill="url(#b)" d="M230 2903l-3 2a382 382 0 0 1-60 27c-8 3-16 5-24 5l-11-1c-5-2-8-7-7-12s4-10 7-14l16-19 4-3c6-6 12-9 19-13l27-16 2-1 30 45z"/>
    <path fill="#92298d" d="M478 2986l2 1c4 2 7 6 8 11 0 4 0 7-2 10-1 3-3 6-6 7-3 2-6 3-10 3h-22l-1-1v-59l2-1h18c4 0 7 1 11 3 4 1 6 5 7 9 1 6 0 11-5 15l-2 2zm-15 27h8c3 0 5-2 8-4 3-3 3-8 2-12s-3-6-6-7l-5-1h-16c-2 0-2 0-2 2a1176 1176 0 0 0 2 22h9zm-2-51h-7c-2 0-2 0-2 2a798 798 0 0 0 2 20h17c3-1 6-3 8-6l1-6c-1-5-4-9-9-9l-10-1zm484-4l1-1c4 0 4 0 4 4v55l-1 1h-2c-1-2-1-2-3-1-4 2-8 3-13 3-7-1-12-5-14-12-2-6-1-12 0-19 2-6 6-10 13-11 4 0 8 0 12 2 3 1 3 1 3-2v-19zm0 40v-11c0-3 0-3-3-4l-9-2c-6 0-10 4-11 9v15c1 4 3 8 7 9 5 1 9 0 14-2 1 0 2-1 2-3v-11zm-576 19c-5 1-5 1-5-4v-25c-1-4-3-6-7-7l-12 2-2 3v29c0 2-1 3-4 2l-1-1v-56c0-2 1-3 3-3s2 1 2 3v16c0 4 0 4 4 2 5-2 11-2 16 0 3 1 5 3 6 6v33zm432 0v-58l2-2h31c2 0 3 2 2 4l-2 1h-24c-4 0-4 0-4 3v16c0 3 0 3 4 3h21c2 0 2 1 2 3 0 1 0 2-2 2h-22c-3 0-3 0-3 3v22c0 4 0 4-4 3h-1zm196-17h-24c-4 0-4 1-4 4l2 5c2 3 4 4 7 5l14-1 2-1c2 3 1 4-1 5-5 2-11 2-16 1-7-1-12-6-13-13v-15c1-4 3-9 8-11l5-2h8c6 1 10 5 11 10l1 13zm-17-4h9c2 0 2-1 3-2l-2-8-3-4c-4-1-8-1-12 1s-5 6-6 10c0 2 1 3 3 3h8zm-565 4h-26l-1 2c0 4 2 11 9 12l13-1 3-1v3l-1 2-9 2h-5c-5-1-9-2-12-6l-3-7v-17c1-6 4-11 13-12l10 1c5 1 7 4 8 9l2 11-1 2zm-16-4h9l2-2v-5c-1-3-2-5-5-7-7-3-17 0-17 11 0 3 0 3 2 3h9zm285 17c1 3 0 3-2 4-5 2-10 2-14 2-7-1-12-5-13-12-2-6-2-13 0-19 1-6 6-10 12-11l11 1c4 1 6 4 7 7l1 7 1 5c0 2 0 3-3 3h-20c-6 0-6 0-4 6 0 4 3 6 6 7l8 1 10-1zm-14-17h9c2 0 2-1 2-2 1-3 0-6-2-9l-3-3-6-1c-5 1-8 3-10 7l-1 5c0 2 0 3 3 3h8zm202 21v-38l1-1h2c1 1 0 3 2 2l2-1c6-3 12-3 18-1 3 1 5 4 6 7v31l-1 2h-4v-28c0-6-2-9-9-9l-10 2-2 3v28c0 4 0 4-3 4l-2-1zm-569 0v-52c0-3 0-3-3-3h-11c-3 0-4-2-3-4l1-1h37c2 0 3 2 2 4l-2 1h-10c-5 0-5 0-5 5v47c0 4 0 4-4 4l-2-1zm223-39h1c3-1 4 0 4 3v34l-1 2c-1 1-2 0-3-1h-2c-4 2-9 3-13 3-3 0-6-1-8-3-3-2-4-5-4-8v-28l1-2h4v29c0 3 1 5 4 6 2 1 4 2 5 1l9-1c3-1 3-1 3-4v-31zm109 40v-28c1-6-2-9-8-9l-10 2c-2 0-2 2-2 4v28c0 2-1 3-4 3l-1-1v-38l1-1h1c1 1 1 3 2 2l3-1c6-3 12-3 18-1 3 1 5 4 5 7l1 4v27l-2 2h-4zm106-5h1l10 1 9-1c2-2 4-4 4-7s-2-5-5-6l-5-1-9-2c-4-1-5-4-5-7-1-8 3-11 9-13 5-1 10 0 15 1 3 1 3 1 2 5l-6-1h-11c-4 1-5 5-4 9 0 2 3 3 5 3l8 2 6 1c3 1 4 3 5 6 1 7-2 13-9 15l-11 1-7-2c-2 0-3-1-2-4zm-41 0l4 1h12c5-1 7-4 7-8 0-3-1-5-3-5l-6-2-9-2c-6-1-7-7-6-12 2-4 5-7 10-8l14 1c4 1 4 1 3 4l-12-1-6 1c-3 1-5 5-4 8s3 4 6 4l8 2 6 2c3 1 4 3 4 6v6c-1 4-4 6-8 7-5 2-10 2-15 1h-2c-3-1-4-2-3-5zm-155 0h1l9 1 9-1c3-2 5-5 4-7 0-3-2-6-5-6l-4-1-10-2c-3-1-5-4-5-7-1-7 3-11 9-12 6-2 12-1 18 1v4l-7-1h-10c-3 1-5 4-5 7 0 2 1 4 3 5l6 1 9 2c4 1 6 4 7 8 0 7-4 11-10 13h-16c-3-1-4-2-3-5zm487-32l-11 1h-2c-3 2-3 2-3 6v28l-2 2h-1c-2 0-2-1-3-3v-34l1-3c2-1 2 1 3 1 0 1 1 2 2 1 4-3 9-3 14-3 3 0 3 0 3 3l-1 1zm-436 37c-3 1-8-2-8-5v-34l2-1h1c2 0 2 0 2 2v29c0 2 0 4 3 5v4zm263 0c-5 1-8-2-8-6l-1-4v-27l1-3h1c3-1 4 0 4 3l-1 28 3 6c2 0 1 2 1 3zm-269-60c3 0 5 2 5 4s-2 4-5 4c-2 0-4-2-4-4s2-4 4-4zm267 4c0 3-2 4-4 4s-4-1-4-4c0-2 2-4 4-4s4 2 4 4z"/>
    <g fill="#5e50a1">
      <path d="M611 2925h-20l-4-2-7-15-18-35c-3-5-7-9-13-11l-4-1h-43c-8 1-15 4-18 12-2 3-2 6-2 9l-1 8v33c0 1 0 2-2 2h-18v-106c0-11 4-21 11-29 5-5 12-9 19-11l17-1h61c11 0 21 2 29 9 8 6 12 13 14 22 2 8 2 16 0 23-3 10-8 17-17 22l-15 6-2 1v2c3 2 5 5 6 8l27 52v2zm-74-127h-39c-6 1-11 4-14 10-2 4-3 9-3 13v21c0 4 1 4 4 3a49 49 0 0 1 24-4h61l9-1c8-3 14-10 14-19v-4c0-8-6-15-14-18l-10-1h-32zm261 53v33a40 40 0 0 1-39 40l-14 1h-54c-9 0-18-2-26-7s-14-11-17-20c-2-5-3-9-3-14v-65c0-11 5-21 13-30 6-6 14-9 23-11h73c12 0 23 3 32 11 6 6 10 13 11 21l1 10v31zm-21 0v-33c0-8-4-16-13-19l-10-1a22534 22534 0 0 0-71 0c-7 1-12 5-15 12-2 4-2 8-2 12v64c1 8 5 14 12 17l12 2a15152 15152 0 0 0 70-1c4 0 7-1 10-4 5-4 7-9 7-16v-33zm-471 74h-17c-3 0-3 0-3-3v-104a40 40 0 0 1 35-40h73c11 0 20 2 29 8 7 6 12 13 14 22 2 7 2 14 1 21-3 13-11 23-23 28-7 3-15 4-23 4h-63l-9 2c-6 2-10 6-12 12l-2 13v37zm56-127h-38c-6 1-11 4-14 9s-3 10-4 15v20c0 4 1 4 4 3 4-2 7-3 11-3l13-1h61l10-1c6-3 10-6 12-12v-13c-1-7-4-12-10-15-4-2-8-2-13-2h-32zm498 127h-20v-106c0-12 4-22 13-31 5-4 10-7 17-8 5-2 11-2 17-2h101c3 0 3 0 3 2v14c0 3 0 4-3 4H884c-5 0-10 0-14 3-5 3-7 7-9 12l-1 9v22c1 2 1 2 3 1l8-2 9-2h85c3 0 3 0 3 3v17h-86c-3 0-7 1-10 3-6 2-9 7-10 12l-2 11v38zm302-127h-107c-5 0-11 1-15 4s-7 7-8 13v30l2 1 1-1 17-4h38c3 0 3 0 3 2v17l-1 1h-39c-4 0-7 1-11 3s-7 6-9 11l-1 10v40h-21v-105c0-13 5-25 15-33 5-4 10-6 15-8l16-1h102c4 0 4 0 4 3v14l-1 3z"/>
      <path d="M1098 2851c-1-6 4-10 9-10 6 0 10 4 11 10 0 7-6 11-11 10-5 0-9-4-9-10zm10 9c4 0 8-4 8-9s-4-9-8-9-10 4-9 9c0 5 3 9 9 9z"/>
      <path d="M1111 2856l-2-1-2-2-2-1-1 2v2l-1-1v-7l2-2h3c3 0 4 3 3 4-2 2-1 3 0 4v2zm-4-9c-2 0-3 1-3 2s1 2 3 2l2-2c1-1-1-2-2-2z"/>
    </g>
  </g>
  <path fill="#1e1d52" d="M2603 170c0-30 18-83 81-83s81 53 81 83-17 84-81 84-81-54-81-84m120 0c0-30-13-60-39-60-25 0-39 30-39 60 0 34 14 60 39 60 26 0 39-26 39-60m-489 0c0-30 18-83 81-83s81 53 81 83-17 84-81 84-81-54-81-84m120 0c0-30-13-60-39-60-25 0-40 30-40 60 0 34 14 60 40 60s39-26 39-60m101 84c-8 0-17-5-17-16V88h69c33 0 51 17 51 38 0 24-22 36-29 38 19 1 40 16 40 39 0 30-25 51-58 51h-56zm22-98h18c9 0 16-2 21-7 4-4 6-10 6-17 0-5-1-10-5-13-6-6-14-7-16-7h-24c-2 0-3 2-3 2v40l3 2m0 74h19c10 0 19-3 24-9 5-4 7-11 7-19 0-7-2-13-6-17s-11-6-20-6h-24c-2 0-3 2-3 2v47s1 2 3 2m369 26c-19 0-37-5-53-16l7-10c4-8 13-7 17-5 10 5 15 7 24 7 15 0 25-8 25-20 0-6-3-13-9-19l-28-23c-23-20-28-27-28-43 0-24 23-42 56-42 16 0 30 4 46 13l-8 12c-4 6-10 4-17 2-3-2-8-3-15-3-13 0-21 6-21 15s1 10 34 35c26 21 33 32 33 49 0 29-26 48-63 48"/>
  <path fill="#fff" d="M1899 180a80 80 0 1 1 77-129c3 4 5 4 7 2l31-17c8-5 20-10 37-1l29 17 66 39c15 9 15 21 15 30v101c0 20-14 41-40 41h-178c-25 0-39-21-39-41v-37c0-1-1-5-5-5"/>
  <path fill="#1e1d52" d="M1914 185v37c0 13 8 31 29 31h178c20 0 31-15 31-31V121c0-9-1-16-11-22l-95-55c-11-6-19-5-27 0l-31 18c-6 3-13 3-19-5a70 70 0 1 0-68 113c8 1 13 9 13 15"/>
  <path fill="#669b41" d="M1914 56a46 46 0 1 0 0 91 46 46 0 0 0 0-91"/>
  <path fill="#fff" d="M2042 85a18 18 0 1 1 0 36 18 18 0 0 1 0-36m-63 43c-9 0-3 16 1 17 28 5 35 7 35 14-1 13-1 25-18 75-5 9 13 6 15 1 11-21 19-38 26-46 2-3 6-3 8 0 7 8 14 25 25 46 2 5 20 8 16-1-18-50-18-62-19-75 0-7 7-9 35-14 5-1 10-17 2-17-63 5-64 5-126 0"/>
  <path fill="#008dc6" d="M2852 2866c0 51-41 92-92 92h-743c-51 0-92-41-92-92v-300c0-51 41-93 92-93h743c51 0 92 42 92 93v300z"/>
  <path fill="#fff" d="M2023 2828v-269h37l87 136c20 32 35 60 48 88l1-1c-3-35-4-68-4-110v-113h32v269h-35l-85-136c-19-30-37-61-50-90l-2 1c2 33 3 66 3 110v115h-32zm315-242h-83v-30h201v30h-83v242h-35v-242zm378 123c-2-38-4-84-4-118h-1c-9 32-21 66-34 104l-48 132h-27l-44-130c-13-38-24-74-32-106h-1c0 34-2 80-5 120l-7 117h-34l19-272h45l47 132c11 33 20 63 27 91h1c7-27 17-57 29-91l49-132h44l17 272h-34l-7-119zm-693 173v-41h6l13 21 8 13-1-17v-17h5v41h-5l-13-21-8-14v35h-5zm67-15c0 11-7 16-15 16s-14-6-14-15c0-10 7-16 15-16s14 6 14 15zm-23 0c0 7 3 12 9 12 5 0 9-5 9-12 0-5-3-11-9-11-7 0-9 6-9 11zm30-5v-9h4l1 5c1-4 4-6 8-6h2v5h-2c-4 0-7 3-7 7l-1 2v16h-5v-20zm45-23v43h-5v-5c-2 3-5 6-10 6-7 0-13-6-13-15 0-10 6-16 14-16 4 0 7 2 8 4h1v-17h5zm-5 26l-1-3c0-3-3-6-7-6-6 0-9 5-9 12 0 6 3 11 8 11 4 0 7-3 8-7l1-2v-5zm20-21c0 2-1 4-4 4-1 0-3-2-3-4s2-3 4-3 3 1 3 3zm-6 38v-29h5v29h-5zm35-1l-8 2c-9 0-15-6-15-15s6-16 16-16l7 1-1 5-6-2c-7 0-10 5-10 11 0 7 4 12 10 12l6-2 1 4zm25-36h-12v-4h30v4h-12v37h-6v-37zm45 22c0 11-8 16-15 16-8 0-14-6-14-15 0-10 7-16 15-16s14 6 14 15zm-23 0c0 7 3 12 9 12 5 0 9-5 9-12 0-5-3-11-9-11-7 0-9 6-9 11zm55 7v8h-5v-5c-2 3-5 6-10 6s-10-3-10-13v-17h5v16c0 6 2 9 7 9 3 0 6-2 7-4v-21h6v21zm9-12l-1-9h5v5h1c1-4 4-6 8-6h1v5h-2c-3 0-6 3-7 7v18h-5v-20zm26-18c0 2-1 4-4 4-1 0-3-2-3-4s2-3 4-3 3 1 3 3zm-6 38v-29h5v29h-5zm13-5l8 2c4 0 5-2 5-5 0-2-1-4-5-5-5-2-8-5-8-8 0-5 4-9 10-9l8 2-2 4-6-2c-3 0-5 2-5 4s2 4 6 5c5 2 8 5 8 9 0 5-4 9-12 9l-8-2 1-4zm25-16v-8h5v4c2-2 5-5 10-5 4 0 7 2 8 6l3-4 7-2c4 0 10 2 10 13v17h-5v-17c0-5-3-9-7-9-3 0-5 3-6 5l-1 3v18h-5v-18c0-4-2-8-6-8s-6 3-7 6v20h-6v-21zm99 3v-18l-6 16-7 20h-4l-7-20-4-16-1 19-1 17h-5l2-41h7l7 20 4 14h1l4-14 7-20h7l3 41h-5l-2-18zm32 18l-1-4c-2 3-5 5-9 5-6 0-9-4-9-9 0-7 6-11 18-11 0-3-1-7-7-7l-8 2-1-3c2-2 6-3 10-3 9 0 11 6 11 12v18h-4zm-1-15c-6 0-13 1-13 7 0 3 3 5 5 5 4 0 7-3 7-5l1-2v-5zm14-6l-1-8h5v4h1c1-2 5-5 9-5 5 0 11 2 11 13v17h-6v-17c0-5-1-9-6-9-4 0-7 3-8 6v20h-5v-21zm50 21v-4h-1c-1 3-4 5-9 5-6 0-9-4-9-9 0-7 7-11 18-11 0-3-1-7-7-7l-7 2-2-3c3-2 6-3 10-3 9 0 11 6 11 12v11l1 7h-5zm-1-15c-6 0-12 1-12 7 0 3 2 5 5 5 4 0 6-3 7-5v-7zm40-14l-1 8v17c0 7-1 11-4 13-3 3-7 4-11 4l-9-2 1-5c2 2 5 3 9 3 5 0 9-3 9-11v-3c-2 3-5 5-9 5-8 0-13-6-13-14 0-10 7-16 13-16s8 3 10 5v-4h5zm-6 11v-2c-1-3-4-6-8-6-5 0-9 4-9 11 0 6 3 11 9 11 4 0 7-2 8-6v-8zm17 4c1 8 5 11 11 11l8-2 1 4-10 2c-9 0-15-6-15-15s6-16 14-16c10 0 12 8 12 14v2h-21zm16-3c0-4-1-9-7-9s-8 5-9 9h16zm12-4v-8h5v4c2-2 4-5 9-5 4 0 7 2 9 6l3-4 7-2c4 0 9 2 9 13v17h-5v-17c0-5-2-9-6-9-3 0-6 3-7 5v21h-5v-18c0-4-2-8-7-8-3 0-5 3-6 6l-1 2v18h-5v-21zm54 7c0 8 5 11 10 11l9-2v4l-9 2c-10 0-15-6-15-15s5-16 14-16c10 0 12 8 12 14v2h-21zm16-3c0-4-1-9-8-9-5 0-7 5-8 9h16zm12-4v-8h4l1 4c1-2 5-5 10-5 4 0 10 2 10 13v17h-5v-17c0-5-2-9-7-9-4 0-6 3-7 6l-1 2v18h-5v-21zm40-17v9h8v4h-8v16c0 3 1 5 4 5h3v4l-4 1-6-2c-2-2-2-5-2-8v-16h-5v-4h5v-8l5-1z"/>
  <path fill="#08bdc8" d="M2066 1064v87c0 4-1 5-5 5h-138c-4 0-5-1-5-5V978c0-4-1-5-5-5h-69c-3 0-4 0-4-4v-98c0-4 1-4 4-4h70c3 0 4 0 4 4v96c0 4 1 5 5 5l138-1c4 0 5 1 5 5v88z"/>
  <path fill="#08bdc8" d="M2010 929h-51c-3 0-4-1-4-4v-55c0-2 1-3 3-3h103c3 0 4 1 4 3v55c0 3-1 4-4 4h-51z"/>
  <path fill="#0dbfc9" d="M2417 1069c15-24 50-23 60 2l8-11c12-11 34-12 46-1 7 6 10 15 11 24v47l1 21c0 2-1 3-4 3-4 0-9 1-12-1s-1-8-1-12v-47c0-5 0-10-2-14-3-18-25-19-34-9-7 7-10 15-10 25v54c0 3-1 4-4 4-4 0-9 2-12-1-2-2 0-7 0-11l-1-52-1-11c-6-17-28-18-37-7-5 6-8 14-8 22v56c0 3-1 4-4 4-4 0-9 2-11-1-3-2-1-7-1-11v-83c0-4 1-5 5-5 3 1 8-2 10 1 2 2 1 7 1 10v4zm328 68c-6 9-13 15-22 18-23 6-45-5-51-28-6-20-5-39 7-57 12-19 40-25 58-12l7 9 1-4v-52c0-3 0-4 3-4 4 1 10-2 12 1 3 2 1 8 1 11v130c0 4-1 5-5 5-3-1-9 2-11-1-2-2 0-7 0-11v-5zm0-35v-9c0-13-9-25-21-27-15-3-28 2-34 15-6 14-6 29-1 43 4 12 14 19 26 19 13 0 23-7 27-19 3-7 3-15 3-22zm-641-39v-45c0-3 1-4 4-4 4 1 10-1 12 1 3 3 1 8 1 12v77c0 9 2 19 9 27 8 10 20 11 32 10 20-2 27-15 29-31l1-15v-77c0-3 0-4 4-4 4 1 9-1 11 1 3 3 1 8 1 12v73c0 9-1 19-5 28-7 16-19 25-36 28-11 1-22 1-32-2-17-6-26-19-29-35l-2-21v-35zm541 70v8c1 5-1 7-5 9-18 8-36 10-54 0-10-5-16-15-19-27-3-15-3-30 3-44 10-23 36-34 59-24 11 5 18 15 21 27 2 7 2 14 2 22 0 3-1 4-4 4h-62c-4 0-4 1-4 5 1 16 11 27 24 29a47 47 0 0 0 38-9h1zm-37-38h24c3 0 4-2 3-4v-3c-1-12-8-20-19-23-18-3-31 10-34 27 0 3 1 3 3 3h23zm289 45a37 37 0 0 1-43 15c-13-4-20-16-20-29 1-20 15-29 33-31l26-4c3 0 4-1 4-5-1-8-3-16-12-20-10-3-19-1-28 3l-13 8v-15l2-2c15-8 30-11 47-6 12 4 17 13 19 25 2 8 1 16 1 24v47c0 3-1 4-4 4h-9c-3 0-3-1-3-3v-11zm0-28v-6c0-3-1-3-3-3l-16 2c-6 1-13 2-19 5-10 4-11 24-1 30 8 5 17 4 25 0 10-6 14-17 14-28zm-641-43c8-11 19-17 33-17 17 0 29 9 32 26l2 15v57c0 3-1 4-4 4-4 0-9 2-12-1-2-2 0-7 0-11v-46l-2-13c-1-8-5-15-14-17-9-3-18-1-25 6-7 6-10 14-10 23v55c0 3 0 4-4 4s-9 2-11-1c-3-2-1-7-1-11v-83c0-4 1-5 5-5h8c3 0 3 1 3 3v12zm97 35v-46c0-3 1-4 4-4h9c2 0 3 1 3 3v94c0 2 0 3-3 3-4 0-9 2-12-1-3-2-1-7-1-11v-38zm440 0v-46c0-3 1-4 4-4h9c2 0 3 1 3 3v93c0 3-1 4-4 4-4 0-9 1-11-1-3-2-1-7-1-11v-38zm-431-96c5 0 10 4 10 10s-5 11-11 11c-6-1-10-5-10-11s5-10 11-10zm429 10c0-6 5-10 10-10 6 0 11 4 11 10s-5 11-11 11c-6-1-10-5-10-11z"/>
  <g transform="translate(-94 -151)">
    <radialGradient id="c" cx="1008" cy="1167" r="47" gradientUnits="userSpaceOnUse">
      <stop offset="0" stop-color="#fbfbfb"/>
      <stop offset="1" stop-color="#dadada"/>
    </radialGradient>
    <path fill="url(#c)" stroke="#000" stroke-miterlimit="10" d="M1025 1200l-6 10-10 11h-2l-4-5v-3c7-5 12-12 17-20v-4l-2-6-3-10v-5l-1-7v-1h-1l-2 4-1 2-2-1-3-4v5c0 2-1 3-3 3h-30c-3 0-3-1-3-3v-5l2-2h28l5 1 1-2a99 99 0 0 0 9-22l2-8 2-12c0-2 0-3 2-2h5l1 2v2l-3 10-1 5 1 1a1889 1889 0 0 0 23 2v5l-2 2h-3l-1 3-3 22-4 15-3 8v2c4 7 8 13 14 18 2 1 2 1 1 3l-3 5c0 2-1 2-3 1l-14-19v-1zm1-57h-4c-2 0-2 0-2 2v2c1 5 0 11 2 17l3 15 1 1v-1l1-3 3-16 2-16-1-1h-5z"/>
    <radialGradient id="d" cx="1117" cy="1201" r="26" gradientUnits="userSpaceOnUse">
      <stop offset="0" stop-color="#fbfbfb"/>
      <stop offset="1" stop-color="#dadada"/>
    </radialGradient>
    <path fill="url(#d)" stroke="#000" stroke-miterlimit="10" d="M1118 1181a277364 277364 0 0 1 31 2v37l-2 1h-6c-1 0-2 0-2-2v-3l-1-1h-41l-2 1v4l-1 1h-6c-1 0-2 0-2-2v-36c0-2 1-2 2-2h30zm-1 25h21l1-1a1145 1145 0 0 1-1-16 6232 6232 0 0 1-43 2 505 505 0 0 1 2 15h20z"/>
    <radialGradient id="e" cx="1064" cy="1167" r="40" gradientUnits="userSpaceOnUse">
      <stop offset="0" stop-color="#fbfbfb"/>
      <stop offset="1" stop-color="#dadada"/>
    </radialGradient>
    <path fill="url(#e)" stroke="#000" stroke-miterlimit="10" d="M1061 1161l-2 4a355 355 0 0 1-8 10l-1-1-2-6v-3c5-6 8-12 11-18 3-5 5-9 6-14l4-10 2-5v-3c0-1 1-2 2-1l7 1 1 3-4 9-6 15-1 2v76l-1 1h-5c-2 0-2 0-2-2v-58h-1z"/>
    <radialGradient id="f" cx="986" cy="1135" r="20" gradientUnits="userSpaceOnUse">
      <stop offset="0" stop-color="#fbfbfb"/>
      <stop offset="1" stop-color="#dadada"/>
    </radialGradient>
    <path fill="url(#f)" stroke="#000" stroke-miterlimit="10" d="M1006 1139v13c0 2 0 3-3 2l-3 1-2-2-1-2h-28c-2 0-2 0-2-2v-23c0-3 0-3 2-3h4c1 0 2 1 2 3v15l1 2h5l1-2v-25l2-1h5l2 2v25l1 1h5l1-2v-15c0-2 1-3 3-3h3c2 0 2 1 2 3v13z"/>
    <radialGradient id="g" cx="987" cy="1198" r="23" gradientUnits="userSpaceOnUse">
      <stop offset="0" stop-color="#fbfbfb"/>
      <stop offset="1" stop-color="#dadada"/>
    </radialGradient>
    <path fill="url(#g)" stroke="#000" stroke-miterlimit="10" d="M999 1196l2-1 8-8h2l1 1 1 5-1 3a991 991 0 0 0-19 15l-4-5v-2c2-2 2-5 2-7v-10l-1-1a349 349 0 0 1-12 1c1 6 0 11-1 16-2 6-5 10-9 14h-2l-4-5v-2c3-1 4-3 5-5 2-5 3-9 3-14l-1-12 2-2a3372 3372 0 0 0 29 2v13l-1 4z"/>
    <radialGradient id="h" cx="951" cy="1182" r="29" gradientUnits="userSpaceOnUse">
      <stop offset="0" stop-color="#fbfbfb"/>
      <stop offset="1" stop-color="#dadada"/>
    </radialGradient>
    <path fill="url(#h)" stroke="#000" stroke-miterlimit="10" d="M949 1176l-5 7-3 3c-1 1-2 0-2-1l-2-5 1-3c6-7 11-15 15-24l4-8c1-2 1-2 3-1l4 2 1 2v2l-7 11-1 4v51l1 3c0 2-1 2-2 2h-5c-1 0-2 0-2-2v-43z"/>
    <radialGradient id="i" cx="1117" cy="1125" r="29" gradientUnits="userSpaceOnUse">
      <stop offset="0" stop-color="#fbfbfb"/>
      <stop offset="1" stop-color="#dadada"/>
    </radialGradient>
    <path fill="url(#i)" stroke="#000" stroke-miterlimit="10" d="M1121 1128h1a28382 28382 0 0 0 34 2v5l-2 1h-73c-3 0-3 0-3-2v-5l2-1h34v-1a675 675 0 0 0-5-11l5-2h2l7 10v2l-2 1v1z"/>
    <radialGradient id="j" cx="1118" cy="1168" r="23" gradientUnits="userSpaceOnUse">
      <stop offset="0" stop-color="#fbfbfb"/>
      <stop offset="1" stop-color="#dadada"/>
    </radialGradient>
    <path fill="url(#j)" stroke="#000" stroke-miterlimit="10" d="M1118 1163h30l2 2v5l-2 2h-61l-2-2v-5l2-2h31z"/>
    <radialGradient id="k" cx="1118" cy="1150" r="23" gradientUnits="userSpaceOnUse">
      <stop offset="0" stop-color="#fbfbfb"/>
      <stop offset="1" stop-color="#dadada"/>
    </radialGradient>
    <path fill="url(#k)" stroke="#000" stroke-miterlimit="10" d="M1117 1154h-30c-1 0-2 0-2-2v-5l2-1h61l2 1v5c0 2-1 2-2 2h-31z"/>
    <radialGradient id="l" cx="951" cy="1133" r="16" gradientUnits="userSpaceOnUse">
      <stop offset="0" stop-color="#fbfbfb"/>
      <stop offset="1" stop-color="#dadada"/>
    </radialGradient>
    <path fill="url(#l)" stroke="#000" stroke-miterlimit="10" d="M965 1119l-2 4-9 13-12 14-2 1-1-1-1-6c-1-1 0-2 1-3 6-6 12-13 16-21l2-4c0-2 1-2 3-1l4 2 1 2z"/>
  </g>
  <g transform="translate(-94 -151)">
    <radialGradient id="m" cx="656" cy="1167" r="51" gradientUnits="userSpaceOnUse">
      <stop offset="0" stop-color="#fbfbfb"/>
      <stop offset="1" stop-color="#dadada"/>
    </radialGradient>
    <path fill="url(#m)" stroke="#000" stroke-miterlimit="10" d="M641 1114c18-4 40 0 52 16 5 6 7 14 9 21h-24c-3-17-27-24-39-12-9 10-11 24-9 36 2 10 6 21 16 25 14 5 30-4 32-19h25c-2 14-9 30-23 36-22 9-54 6-67-17 2-9 4-19 2-28-1-7-4-14-7-20 0-18 16-34 33-38z"/>
    <linearGradient id="n" x1="397" x2="534" y1="1169" y2="1169" gradientUnits="userSpaceOnUse">
      <stop offset="0" stop-color="#b0d85f"/>
      <stop offset="1" stop-color="#9de60b"/>
      <stop offset="1" stop-color="#92bb4c"/>
    </linearGradient>
    <path fill="url(#n)" stroke="#000" stroke-miterlimit="10" d="M397 1117h27c5 23 8 47 14 69l15-57c1-6 6-12 12-12 8-1 13 6 14 12l14 57c7-23 11-46 16-69h25l-22 86c-2 7-5 16-13 18-9 2-17-5-19-13l-14-52-14 51c-2 8-8 16-17 14-8-1-12-9-14-16l-24-88z"/>
    <radialGradient id="o" cx="747" cy="1169" r="46" gradientUnits="userSpaceOnUse">
      <stop offset="0" stop-color="#fbfbfb"/>
      <stop offset="1" stop-color="#dadada"/>
    </radialGradient>
    <path fill="url(#o)" stroke="#000" stroke-miterlimit="10" d="M708 1117h24v26c13 1 27-3 38 4 10 5 16 16 16 28v46l-23 1v-45c0-6-3-11-8-11l-23-1v57h-24v-105z"/>
    <radialGradient id="p" cx="900" cy="1169" r="42" gradientUnits="userSpaceOnUse">
      <stop offset="0" stop-color="#fbfbfb"/>
      <stop offset="1" stop-color="#dadada"/>
    </radialGradient>
    <path fill="url(#p)" stroke="#000" stroke-miterlimit="10" d="M889 1117h22v24h18v17h-18c0 13-1 27 1 40 4 5 11 4 16 6v17c-13 1-30 2-37-12-5-16-1-34-2-51h-18v-17h18v-24z"/>
    <linearGradient id="q" x1="527" x2="608" y1="1180" y2="1180" gradientUnits="userSpaceOnUse">
      <stop offset="0" stop-color="#b0d85f"/>
      <stop offset="1" stop-color="#9de60b"/>
      <stop offset="1" stop-color="#92bb4c"/>
    </linearGradient>
    <path fill="url(#q)" stroke="#000" stroke-miterlimit="10" d="M608 1187c0-15-3-32-17-41-17-11-45-10-56 9-10 16-11 39 2 54s36 15 52 8c9-4 14-12 18-21h-22c-6 7-18 11-27 6-6-3-7-10-9-15h59zm-59-16c2-8 9-15 18-14 9-1 15 6 18 14h-36z"/>
    <radialGradient id="r" cx="830" cy="1181" r="39" gradientUnits="userSpaceOnUse">
      <stop offset="0" stop-color="#fbfbfb"/>
      <stop offset="1" stop-color="#dadada"/>
    </radialGradient>
    <path fill="url(#r)" stroke="#000" stroke-miterlimit="10" d="M867 1167c0-14-12-25-26-27-13-1-28-1-39 8-6 4-7 11-9 18h21c3-12 19-13 28-7 3 3 3 8 4 12-14 0-30-2-43 6-12 7-14 24-7 36 5 7 14 9 23 9h49l-1-55zm-52 33c-1-4 1-7 2-11 10-2 19-2 28-2v19c-10-1-22 2-30-6z"/>
  </g>
  <g transform="translate(-94 -151)">
    <radialGradient id="s" cx="199" cy="1137" r="103" gradientUnits="userSpaceOnUse">
      <stop offset="0" stop-color="#b0d85f"/>
      <stop offset="1" stop-color="#9de60b"/>
      <stop offset="1" stop-color="#92bb4c"/>
    </radialGradient>
    <path fill="url(#s)" stroke="#000" stroke-miterlimit="10" d="M258 1055c-30-18-68-20-101-8-22 8-42 22-54 42a79 79 0 0 0-10 60c6 23 21 42 40 54l-10 32 36-19c14 4 30 6 45 6 28 0 50-8 60-13 13-8 27-21 31-33 10-27 13-43 10-60-5-26-24-49-47-61zm-82 47c-2 10-16 15-24 9-9-7-6-23 5-27 10-4 22 7 19 18zm75-3c0 12-16 19-25 11-9-6-6-22 4-26 10-3 21 5 21 15z"/>
    <radialGradient id="t" cx="293" cy="1201" r="87" gradientUnits="userSpaceOnUse">
      <stop offset="0" stop-color="#fbfbfb"/>
      <stop offset="1" stop-color="#dadada"/>
    </radialGradient>
    <path fill="url(#t)" stroke="#000" stroke-miterlimit="10" d="M378 1169c-8-17-22-31-38-39-29-15-66-15-95 0a78 78 0 0 0-42 52c-4 16 0 34 9 49 13 21 37 35 61 40 18 3 37 1 54-4 11 4 20 11 30 16l-8-26c11-8 21-18 27-31 10-18 10-39 2-57zm-101 6c-3 8-15 11-20 5-7-6-4-18 4-21 9-3 20 7 16 16zm59 1c-3 8-14 9-19 4-3-3-4-6-5-9 2-6 5-12 12-12 9-1 17 9 12 17z"/>
    <circle cx="162" cy="1099" r="15"/>
    <circle cx="235" cy="1099" r="15"/>
    <circle cx="265" cy="1171" r="12"/>
    <circle cx="325" cy="1171" r="12"/>
  </g>
  <g transform="translate(-94 -151)">
    <path fill="#0082c6" d="M2183 2048l35-160h-72l-12 57h13l-23 103-20 91h59zm-108-27l-34-50c-3-5-8-11-7-18 2-10 20-8 26-8h60l12-57h-90c-55 0-75 36-80 59-5 25 6 42 17 59l28 42 6 9c3 5 8 10 6 17-2 10-19 8-25 8h-52l-13 57h84c55 0 75-36 80-58 3-13 1-23-2-33-4-10-10-18-16-27z"/>
    <linearGradient id="u" x1="2629" x2="2585" y1="1940" y2="1887" gradientUnits="userSpaceOnUse">
      <stop offset="0" stop-color="#014d77"/>
      <stop offset="0" stop-color="#014d77"/>
      <stop offset="0" stop-color="#03608f"/>
      <stop offset="0" stop-color="#067db6"/>
      <stop offset="0" stop-color="#077fba"/>
      <stop offset="1" stop-color="#0983c1"/>
      <stop offset="1" stop-color="#0984c3"/>
    </linearGradient>
    <linearGradient id="v" x1="2571" x2="2643" y1="1913" y2="1913" gradientUnits="userSpaceOnUse">
      <stop offset="0" stop-color="#014d77"/>
      <stop offset="0" stop-color="#01507b"/>
      <stop offset="0" stop-color="#04689b"/>
      <stop offset="0" stop-color="#0578af"/>
      <stop offset="0" stop-color="#067db6"/>
      <stop offset="0" stop-color="#077fba"/>
      <stop offset="0" stop-color="#0983c1"/>
      <stop offset="1" stop-color="#0984c3"/>
      <stop offset="1" stop-color="#0984c3"/>
      <stop offset="1" stop-color="#0984c3"/>
    </linearGradient>
    <path fill="url(#u)" stroke="url(#v)" stroke-miterlimit="10" stroke-width="2" d="M2572 1938h59l11-50h-59z"/>
    <linearGradient id="w" x1="2528" x2="2627" y1="2046" y2="2046" gradientUnits="userSpaceOnUse">
      <stop offset="0" stop-color="#014d77"/>
      <stop offset="0" stop-color="#014d77"/>
      <stop offset="0" stop-color="#01517c"/>
      <stop offset="0" stop-color="#03608f"/>
      <stop offset="0" stop-color="#067db6"/>
      <stop offset="0" stop-color="#077fba"/>
      <stop offset="0" stop-color="#0983c1"/>
      <stop offset="1" stop-color="#0984c3"/>
      <stop offset="1" stop-color="#0983c1"/>
      <stop offset="1" stop-color="#087eba"/>
      <stop offset="1" stop-color="#0775af"/>
      <stop offset="1" stop-color="#05699e"/>
      <stop offset="1" stop-color="#025a88"/>
      <stop offset="1" stop-color="#01517c"/>
    </linearGradient>
    <linearGradient id="x" x1="2527" x2="2628" y1="2046" y2="2046" gradientUnits="userSpaceOnUse">
      <stop offset="0" stop-color="#007fc2"/>
      <stop offset="0" stop-color="#0070ac"/>
      <stop offset="0" stop-color="#015d8f"/>
      <stop offset="0" stop-color="#01517d"/>
      <stop offset="1" stop-color="#014d77"/>
      <stop offset="1" stop-color="#035988"/>
      <stop offset="1" stop-color="#0670a8"/>
      <stop offset="1" stop-color="#087fbc"/>
      <stop offset="1" stop-color="#0984c3"/>
    </linearGradient>
    <path fill="url(#w)" stroke="url(#x)" stroke-miterlimit="10" stroke-width="2" d="M2569 1954l-21 94-20 91h59l20-91 20-94z"/>
    <linearGradient id="y" x1="2963" x2="3007" y1="1975" y2="1975" gradientUnits="userSpaceOnUse">
      <stop offset="0" stop-color="#014d77"/>
      <stop offset="0" stop-color="#014d77"/>
      <stop offset="0" stop-color="#01517c"/>
      <stop offset="0" stop-color="#03608f"/>
      <stop offset="0" stop-color="#067db6"/>
      <stop offset="0" stop-color="#077fba"/>
      <stop offset="0" stop-color="#0983c1"/>
      <stop offset="1" stop-color="#0984c3"/>
      <stop offset="1" stop-color="#0983c1"/>
      <stop offset="1" stop-color="#087eba"/>
      <stop offset="1" stop-color="#0775af"/>
      <stop offset="1" stop-color="#05699e"/>
      <stop offset="1" stop-color="#025a88"/>
      <stop offset="1" stop-color="#01517c"/>
    </linearGradient>
    <path fill="url(#y)" fill-rule="evenodd" d="M2963 1975c0 13 10 23 22 23 12-1 22-10 22-23 0-12-10-22-22-22s-22 10-22 22zm6 0c0-10 7-17 16-17s16 7 16 17c0 11-7 18-16 18s-16-7-16-18zm7 13h5v-11h3l6 11h5l-6-11c4 0 6-2 6-7s-3-7-10-7h-9v25zm5-15v-6h4c3 0 5 0 5 3s-2 3-5 3h-4z" clip-rule="evenodd"/>
    <linearGradient id="z" x1="2095" x2="1928" y1="2059" y2="2059" gradientUnits="userSpaceOnUse">
      <stop offset="0" stop-color="#014d77"/>
      <stop offset="0" stop-color="#014d77"/>
      <stop offset="0" stop-color="#03608f"/>
      <stop offset="1" stop-color="#067db6"/>
      <stop offset="1" stop-color="#077fba"/>
      <stop offset="1" stop-color="#0983c1"/>
      <stop offset="1" stop-color="#0984c3"/>
    </linearGradient>
    <path fill="url(#z)" d="M2092 2049c3 9 5 20 2 32-5 23-25 59-81 59 7-9 15-22 15-40 0-24-15-44-23-54l-26-40 28 43 6 8c3 5 8 10 6 18-2 10-19 8-26 8h-52l-13 57h85c56 0 76-36 81-58 3-13 1-24-2-33z"/>
    <linearGradient id="A" x1="1928" x2="2095" y1="2059" y2="2059" gradientUnits="userSpaceOnUse">
      <stop offset="0" stop-color="#007fc2"/>
      <stop offset="0" stop-color="#0070ac"/>
      <stop offset="0" stop-color="#015d8f"/>
      <stop offset="0" stop-color="#01517d"/>
      <stop offset="1" stop-color="#014d77"/>
      <stop offset="1" stop-color="#035988"/>
      <stop offset="1" stop-color="#0670a8"/>
      <stop offset="1" stop-color="#087fbc"/>
      <stop offset="1" stop-color="#0984c3"/>
    </linearGradient>
    <path fill="url(#A)" d="M2021 2075c3 7 5 16 5 25 0 18-7 31-14 38h-82l12-53h51a118 118 0 0 1 6 0c8 0 20-1 22-10m-58-96c4 10 10 19 16 27l28 43 6 8c3 5 8 10 6 18-2 7-12 8-20 8h-58l-13 57h85c56 0 76-36 81-58-5 22-25 58-81 58 7-9 15-22 15-40 0-24-15-44-23-54l-26-40c-6-9-12-18-16-27zm129 70z"/>
    <linearGradient id="B" x1="2058" x2="2093" y1="1968" y2="1872" gradientUnits="userSpaceOnUse">
      <stop offset="0" stop-color="#014d77"/>
      <stop offset="0" stop-color="#014d77"/>
      <stop offset="0" stop-color="#03608f"/>
      <stop offset="1" stop-color="#067db6"/>
      <stop offset="1" stop-color="#077fba"/>
      <stop offset="1" stop-color="#0983c1"/>
      <stop offset="1" stop-color="#0984c3"/>
    </linearGradient>
    <path fill="url(#B)" d="M2042 1886v1c-12 9-32 33-11 67l4 5-1-7c2-10 20-8 27-8h60l12-57-91-1z"/>
    <linearGradient id="C" x1="2133" x2="2027" y1="1886" y2="1947" gradientUnits="userSpaceOnUse">
      <stop offset="0" stop-color="#014d77"/>
      <stop offset="0" stop-color="#01507b"/>
      <stop offset="0" stop-color="#04689b"/>
      <stop offset="0" stop-color="#0578af"/>
      <stop offset="0" stop-color="#067db6"/>
      <stop offset="0" stop-color="#077fba"/>
      <stop offset="0" stop-color="#0983c1"/>
      <stop offset="1" stop-color="#0984c3"/>
      <stop offset="1" stop-color="#0984c3"/>
      <stop offset="1" stop-color="#0984c3"/>
    </linearGradient>
    <path fill="url(#C)" d="M2043 1888l88 1-11 53h-65c-9 0-21 1-23 10-9-14-11-28-6-40 3-11 11-19 17-24m-1-2v1c-12 9-32 33-11 67l4 5-1-7c2-8 13-8 21-8h66l12-57-91-1z"/>
    <linearGradient id="D" x1="2086" x2="1970" y1="2113" y2="1912" gradientUnits="userSpaceOnUse">
      <stop offset="0" stop-color="#014d77"/>
      <stop offset="0" stop-color="#01507b"/>
      <stop offset="0" stop-color="#04689b"/>
      <stop offset="0" stop-color="#0578af"/>
      <stop offset="1" stop-color="#067db6"/>
      <stop offset="1" stop-color="#077fba"/>
      <stop offset="1" stop-color="#0983c1"/>
      <stop offset="1" stop-color="#0984c3"/>
      <stop offset="1" stop-color="#0984c3"/>
      <stop offset="1" stop-color="#0984c3"/>
    </linearGradient>
    <path fill="url(#D)" d="M2041 1970l35 51c5 9 12 17 16 27 3 10 5 20 2 33-5 23-25 59-81 59 7-9 15-22 15-40 0-24-15-44-23-54l-26-40c-12-17-23-35-18-61 5-23 25-59 81-59-12 10-33 33-11 68l10 16z"/>
    <linearGradient id="E" x1="2095" x2="1959" y1="2013" y2="2013" gradientUnits="userSpaceOnUse">
      <stop offset="0" stop-color="#014d77"/>
      <stop offset="0" stop-color="#01507b"/>
      <stop offset="0" stop-color="#04689b"/>
      <stop offset="0" stop-color="#0578af"/>
      <stop offset="1" stop-color="#067db6"/>
      <stop offset="1" stop-color="#077fba"/>
      <stop offset="1" stop-color="#0983c1"/>
      <stop offset="1" stop-color="#0984c3"/>
      <stop offset="1" stop-color="#0984c3"/>
      <stop offset="1" stop-color="#0984c3"/>
    </linearGradient>
    <path fill="url(#E)" d="M2038 1888c-12 11-29 34-8 67l10 16 34 51 3 4c5 7 10 15 13 23 4 10 5 21 2 32-2 8-7 24-21 37a80 80 0 0 1-54 20c6-9 12-21 12-38 0-27-16-47-23-55l-26-40c-11-16-23-34-18-59a77 77 0 0 1 75-58m5-2c-56 0-76 36-81 59-5 26 6 44 18 61l26 40c8 10 23 30 23 54 0 18-8 31-15 40 56 0 76-36 81-59 3-13 1-23-2-33-4-10-11-18-16-27l-35-51-10-16c-22-35-1-58 11-68z"/>
    <linearGradient id="F" x1="2208" x2="2101" y1="1951" y2="2136" gradientUnits="userSpaceOnUse">
      <stop offset="0" stop-color="#014d77"/>
      <stop offset="0" stop-color="#014d77"/>
      <stop offset="0" stop-color="#01517c"/>
      <stop offset="0" stop-color="#03608f"/>
      <stop offset="0" stop-color="#067db6"/>
      <stop offset="0" stop-color="#077fba"/>
      <stop offset="0" stop-color="#0983c1"/>
      <stop offset="1" stop-color="#0984c3"/>
      <stop offset="1" stop-color="#0983c1"/>
      <stop offset="1" stop-color="#087eba"/>
      <stop offset="1" stop-color="#0775af"/>
      <stop offset="1" stop-color="#05699e"/>
      <stop offset="1" stop-color="#025a88"/>
      <stop offset="1" stop-color="#01517c"/>
    </linearGradient>
    <linearGradient id="G" x1="2103" x2="2205" y1="2041" y2="2041" gradientUnits="userSpaceOnUse">
      <stop offset="0" stop-color="#007fc2"/>
      <stop offset="0" stop-color="#0070ac"/>
      <stop offset="0" stop-color="#015d8f"/>
      <stop offset="0" stop-color="#01517d"/>
      <stop offset="1" stop-color="#014d77"/>
      <stop offset="1" stop-color="#035988"/>
      <stop offset="1" stop-color="#0670a8"/>
      <stop offset="1" stop-color="#087fbc"/>
      <stop offset="1" stop-color="#0984c3"/>
    </linearGradient>
    <path fill="url(#F)" stroke="url(#G)" stroke-miterlimit="10" stroke-width="2" d="M2190 1944l-43 1-23 103-20 91h59l20-91 21-95c-2-5-5-9-14-9z"/>
    <linearGradient id="H" x1="2191" x2="2163" y1="1958" y2="1882" gradientUnits="userSpaceOnUse">
      <stop offset="0" stop-color="#014d77"/>
      <stop offset="0" stop-color="#014d77"/>
      <stop offset="0" stop-color="#03608f"/>
      <stop offset="0" stop-color="#067db6"/>
      <stop offset="0" stop-color="#077fba"/>
      <stop offset="1" stop-color="#0983c1"/>
      <stop offset="1" stop-color="#0984c3"/>
    </linearGradient>
    <linearGradient id="I" x1="2132" x2="2219" y1="1922" y2="1922" gradientUnits="userSpaceOnUse">
      <stop offset="0" stop-color="#014d77"/>
      <stop offset="0" stop-color="#01507b"/>
      <stop offset="0" stop-color="#04689b"/>
      <stop offset="0" stop-color="#0578af"/>
      <stop offset="0" stop-color="#067db6"/>
      <stop offset="0" stop-color="#077fba"/>
      <stop offset="0" stop-color="#0983c1"/>
      <stop offset="1" stop-color="#0984c3"/>
      <stop offset="1" stop-color="#0984c3"/>
      <stop offset="1" stop-color="#0984c3"/>
    </linearGradient>
    <path fill="url(#H)" stroke="url(#I)" stroke-miterlimit="10" stroke-width="2" d="M2190 1944c9 0 12 4 14 9l14-65h-72l-12 57h13l43-1z"/>
    <linearGradient id="J" x1="2551" x2="2444" y1="1951" y2="2136" gradientUnits="userSpaceOnUse">
      <stop offset="0" stop-color="#014d77"/>
      <stop offset="0" stop-color="#014d77"/>
      <stop offset="0" stop-color="#01517c"/>
      <stop offset="0" stop-color="#03608f"/>
      <stop offset="0" stop-color="#067db6"/>
      <stop offset="0" stop-color="#077fba"/>
      <stop offset="0" stop-color="#0983c1"/>
      <stop offset="1" stop-color="#0984c3"/>
      <stop offset="1" stop-color="#0983c1"/>
      <stop offset="1" stop-color="#087eba"/>
      <stop offset="1" stop-color="#0775af"/>
      <stop offset="1" stop-color="#05699e"/>
      <stop offset="1" stop-color="#025a88"/>
      <stop offset="1" stop-color="#01517c"/>
    </linearGradient>
    <linearGradient id="K" x1="2446" x2="2548" y1="2041" y2="2041" gradientUnits="userSpaceOnUse">
      <stop offset="0" stop-color="#007fc2"/>
      <stop offset="0" stop-color="#0070ac"/>
      <stop offset="0" stop-color="#015d8f"/>
      <stop offset="0" stop-color="#01517d"/>
      <stop offset="1" stop-color="#014d77"/>
      <stop offset="1" stop-color="#035988"/>
      <stop offset="1" stop-color="#0670a8"/>
      <stop offset="1" stop-color="#087fbc"/>
      <stop offset="1" stop-color="#0984c3"/>
    </linearGradient>
    <path fill="url(#J)" stroke="url(#K)" stroke-miterlimit="10" stroke-width="2" d="M2533 1944l-43 1-23 103-19 91h59l19-91 21-95c-1-5-5-9-14-9z"/>
    <linearGradient id="L" x1="2534" x2="2506" y1="1958" y2="1882" gradientUnits="userSpaceOnUse">
      <stop offset="0" stop-color="#014d77"/>
      <stop offset="0" stop-color="#014d77"/>
      <stop offset="0" stop-color="#03608f"/>
      <stop offset="0" stop-color="#067db6"/>
      <stop offset="0" stop-color="#077fba"/>
      <stop offset="1" stop-color="#0983c1"/>
      <stop offset="1" stop-color="#0984c3"/>
    </linearGradient>
    <linearGradient id="M" x1="2476" x2="2562" y1="1922" y2="1922" gradientUnits="userSpaceOnUse">
      <stop offset="0" stop-color="#014d77"/>
      <stop offset="0" stop-color="#01507b"/>
      <stop offset="0" stop-color="#04689b"/>
      <stop offset="0" stop-color="#0578af"/>
      <stop offset="0" stop-color="#067db6"/>
      <stop offset="0" stop-color="#077fba"/>
      <stop offset="0" stop-color="#0983c1"/>
      <stop offset="1" stop-color="#0984c3"/>
      <stop offset="1" stop-color="#0984c3"/>
      <stop offset="1" stop-color="#0984c3"/>
    </linearGradient>
    <path fill="url(#L)" stroke="url(#M)" stroke-miterlimit="10" stroke-width="2" d="M2533 1944c9 0 13 4 14 9l14-65h-72l-12 57h13l43-1z"/>
    <linearGradient id="N" x1="2214" x2="2286" y1="2074" y2="2116" gradientUnits="userSpaceOnUse">
      <stop offset="0" stop-color="#014d77"/>
      <stop offset="0" stop-color="#014d77"/>
      <stop offset="0" stop-color="#03608f"/>
      <stop offset="0" stop-color="#067db6"/>
      <stop offset="0" stop-color="#077fba"/>
      <stop offset="1" stop-color="#0983c1"/>
      <stop offset="1" stop-color="#0984c3"/>
      <stop offset="1" stop-color="#014d77"/>
    </linearGradient>
    <path fill="url(#N)" d="M2246 2025c-23 24-39 66-43 93l4 21h66l-21-91-6-23z"/>
    <linearGradient id="O" x1="2203" x2="2273" y1="2082" y2="2082" gradientUnits="userSpaceOnUse">
      <stop offset="0" stop-color="#014d77"/>
      <stop offset="0" stop-color="#01507b"/>
      <stop offset="0" stop-color="#04689b"/>
      <stop offset="0" stop-color="#0578af"/>
      <stop offset="0" stop-color="#067db6"/>
      <stop offset="0" stop-color="#077fba"/>
      <stop offset="0" stop-color="#0983c1"/>
      <stop offset="1" stop-color="#0984c3"/>
      <stop offset="1" stop-color="#0984c3"/>
      <stop offset="1" stop-color="#0984c3"/>
    </linearGradient>
    <path fill="url(#O)" d="M2245 2028l5 21 21 88h-62v-1l-4-18c4-28 19-67 40-90m1-3c-23 24-39 66-43 93l4 21h66l-21-91-6-23z"/>
    <linearGradient id="P" x1="2186" x2="2305" y1="2046" y2="2046" gradientUnits="userSpaceOnUse">
      <stop offset="0" stop-color="#014d77"/>
      <stop offset="0" stop-color="#014d77"/>
      <stop offset="0" stop-color="#01517c"/>
      <stop offset="0" stop-color="#03608f"/>
      <stop offset="0" stop-color="#067db6"/>
      <stop offset="0" stop-color="#077fba"/>
      <stop offset="0" stop-color="#0983c1"/>
      <stop offset="1" stop-color="#0984c3"/>
      <stop offset="1" stop-color="#0983c1"/>
      <stop offset="1" stop-color="#087eba"/>
      <stop offset="1" stop-color="#0775af"/>
      <stop offset="1" stop-color="#05699e"/>
      <stop offset="1" stop-color="#025a88"/>
      <stop offset="1" stop-color="#01517c"/>
    </linearGradient>
    <path fill="url(#P)" d="M2249 2035l56-81h-64l-55 83 2 11 19 91c4-20 16-68 42-104z"/>
    <linearGradient id="Q" x1="2186" x2="2305" y1="2046" y2="2046" gradientUnits="userSpaceOnUse">
      <stop offset="0" stop-color="#007fc2"/>
      <stop offset="0" stop-color="#0070ac"/>
      <stop offset="0" stop-color="#015d8f"/>
      <stop offset="0" stop-color="#01517d"/>
      <stop offset="1" stop-color="#014d77"/>
      <stop offset="1" stop-color="#035988"/>
      <stop offset="1" stop-color="#0670a8"/>
      <stop offset="1" stop-color="#087fbc"/>
      <stop offset="1" stop-color="#0984c3"/>
    </linearGradient>
    <path fill="url(#Q)" d="M2301 1956l-54 78v1c-24 33-36 76-40 95l-17-82-2-11 54-81h59m4-2h-64l-55 83 2 11 19 91c4-20 16-68 42-104l56-81z"/>
    <linearGradient id="R" x1="2262" x2="2449" y1="2152" y2="1929" gradientUnits="userSpaceOnUse">
      <stop offset="0" stop-color="#014d77"/>
      <stop offset="0" stop-color="#014d77"/>
      <stop offset="0" stop-color="#03608f"/>
      <stop offset="0" stop-color="#067db6"/>
      <stop offset="0" stop-color="#067db6"/>
      <stop offset="1" stop-color="#067db6"/>
      <stop offset="1" stop-color="#077fba"/>
      <stop offset="1" stop-color="#0983c1"/>
      <stop offset="1" stop-color="#0984c3"/>
      <stop offset="1" stop-color="#014d77"/>
    </linearGradient>
    <linearGradient id="S" x1="2287" x2="2480" y1="2064" y2="2064" gradientUnits="userSpaceOnUse">
      <stop offset="0" stop-color="#014d77"/>
      <stop offset="0" stop-color="#01507b"/>
      <stop offset="0" stop-color="#04689b"/>
      <stop offset="0" stop-color="#0578af"/>
      <stop offset="0" stop-color="#067db6"/>
      <stop offset="0" stop-color="#077fba"/>
      <stop offset="0" stop-color="#0983c1"/>
      <stop offset="1" stop-color="#0984c3"/>
      <stop offset="1" stop-color="#0984c3"/>
      <stop offset="1" stop-color="#0984c3"/>
    </linearGradient>
    <path fill="url(#R)" stroke="url(#S)" stroke-miterlimit="10" stroke-width="2" d="M2478 1954l-55 94-72 126h-63l30-51-13-75-9-57 25-37h38l8 87 46-87h65zm-164 146s11 47 5 74h32l26-46-10-87-8-87h-38l-25 37 9 57 9 52z"/>
    <linearGradient id="T" x1="2274" x2="2400" y1="2010" y2="2115" gradientUnits="userSpaceOnUse">
      <stop offset="0" stop-color="#014d77"/>
      <stop offset="0" stop-color="#014d77"/>
      <stop offset="0" stop-color="#01517c"/>
      <stop offset="0" stop-color="#03608f"/>
      <stop offset="0" stop-color="#067db6"/>
      <stop offset="0" stop-color="#077fba"/>
      <stop offset="0" stop-color="#0983c1"/>
      <stop offset="0" stop-color="#0984c3"/>
      <stop offset="1" stop-color="#0880bd"/>
      <stop offset="1" stop-color="#0674ac"/>
      <stop offset="1" stop-color="#036091"/>
      <stop offset="1" stop-color="#01517c"/>
    </linearGradient>
    <path fill="url(#T)" d="M2314 2100s11 47 5 74h32l26-46-10-87-8-87h-38l-25 37 9 57 9 52z"/>
    <linearGradient id="U" x1="2296" x2="2377" y1="2064" y2="2064" gradientUnits="userSpaceOnUse">
      <stop offset="0" stop-color="#007fc2"/>
      <stop offset="0" stop-color="#0070ac"/>
      <stop offset="0" stop-color="#015d8f"/>
      <stop offset="0" stop-color="#01517d"/>
      <stop offset="1" stop-color="#014d77"/>
      <stop offset="1" stop-color="#035988"/>
      <stop offset="1" stop-color="#0670a8"/>
      <stop offset="1" stop-color="#087fbc"/>
      <stop offset="1" stop-color="#0984c3"/>
    </linearGradient>
    <path fill="url(#U)" d="M2358 1956l7 85v2h1c3 37 9 79 10 85l-26 44h-29c5-27-4-70-5-73l-9-51-10-57 25-35h36m1-2h-38l-25 37 9 57 9 52s11 47 5 74h32l26-46-10-87-8-87z"/>
    <linearGradient id="V" x1="2728" x2="2761" y1="1950" y2="2139" gradientUnits="userSpaceOnUse">
      <stop offset="0" stop-color="#014d77"/>
      <stop offset="0" stop-color="#014d77"/>
      <stop offset="0" stop-color="#01517c"/>
      <stop offset="0" stop-color="#03608f"/>
      <stop offset="0" stop-color="#067db6"/>
      <stop offset="0" stop-color="#077fba"/>
      <stop offset="0" stop-color="#0983c1"/>
      <stop offset="1" stop-color="#0984c3"/>
      <stop offset="1" stop-color="#0983c1"/>
      <stop offset="1" stop-color="#087eba"/>
      <stop offset="1" stop-color="#0775af"/>
      <stop offset="1" stop-color="#05699e"/>
      <stop offset="1" stop-color="#025a88"/>
      <stop offset="1" stop-color="#01517c"/>
    </linearGradient>
    <path fill="url(#V)" d="M2791 1979c-6-17-20-24-48-25h-35c-31 0-24 30-29 50h31c25 0 24 5 19 29l-3 15-21 91h59l20-91 5-23c5-19 5-35 2-46z"/>
    <linearGradient id="W" x1="2679" x2="2793" y1="2046" y2="2046" gradientUnits="userSpaceOnUse">
      <stop offset="0" stop-color="#007fc2"/>
      <stop offset="0" stop-color="#0070ac"/>
      <stop offset="0" stop-color="#015d8f"/>
      <stop offset="0" stop-color="#01517d"/>
      <stop offset="1" stop-color="#014d77"/>
      <stop offset="1" stop-color="#035988"/>
      <stop offset="1" stop-color="#0670a8"/>
      <stop offset="1" stop-color="#087fbc"/>
      <stop offset="1" stop-color="#0984c3"/>
    </linearGradient>
    <path fill="url(#W)" d="M2708 1955v1h35c27 0 41 8 46 23 3 11 3 26-1 45l-5 24-20 89h-55l20-88 3-15c2-14 4-22 0-27-3-4-11-5-21-5h-28l1-14c1-8 2-16 5-22 4-7 10-10 20-10v-1m35-1h-35c-31 0-24 30-29 50h31c25 0 24 5 19 29l-3 15-21 91h59l20-91 5-23c5-19 5-35 2-46-6-17-20-24-48-25z"/>
    <linearGradient id="X" x1="2719" x2="2604" y1="1938" y2="2137" gradientUnits="userSpaceOnUse">
      <stop offset="0" stop-color="#014d77"/>
      <stop offset="0" stop-color="#014d77"/>
      <stop offset="0" stop-color="#01517c"/>
      <stop offset="0" stop-color="#03608f"/>
      <stop offset="0" stop-color="#067db6"/>
      <stop offset="0" stop-color="#077fba"/>
      <stop offset="0" stop-color="#0983c1"/>
      <stop offset="1" stop-color="#0984c3"/>
      <stop offset="1" stop-color="#0983c1"/>
      <stop offset="1" stop-color="#087eba"/>
      <stop offset="1" stop-color="#0775af"/>
      <stop offset="1" stop-color="#05699e"/>
      <stop offset="1" stop-color="#025a88"/>
      <stop offset="1" stop-color="#01517c"/>
    </linearGradient>
    <path fill="url(#X)" d="M2747 1954h-99l-21 94-20 91h59l20-91 10-44c4-20 20-50 51-50z"/>
    <linearGradient id="Y" x1="2677" x2="2677" y1="1954" y2="2139" gradientUnits="userSpaceOnUse">
      <stop offset="0" stop-color="#007fc2"/>
      <stop offset="0" stop-color="#0070ac"/>
      <stop offset="0" stop-color="#015d8f"/>
      <stop offset="0" stop-color="#01517d"/>
      <stop offset="1" stop-color="#014d77"/>
      <stop offset="1" stop-color="#035988"/>
      <stop offset="1" stop-color="#0670a8"/>
      <stop offset="1" stop-color="#087fbc"/>
      <stop offset="1" stop-color="#0984c3"/>
    </linearGradient>
    <path fill="url(#Y)" d="M2730 1956c-20 8-32 29-36 47l-9 45-21 89h-54l19-88 20-93h81m9-2h-91l-21 94-20 91h59l20-91 10-44c4-20 20-50 51-50h-8z"/>
    <linearGradient id="Z" x1="2837" x2="2950" y1="2031" y2="2051" gradientUnits="userSpaceOnUse">
      <stop offset="0" stop-color="#014d77"/>
      <stop offset="0" stop-color="#014d77"/>
      <stop offset="0" stop-color="#01517c"/>
      <stop offset="0" stop-color="#03608f"/>
      <stop offset="0" stop-color="#067db6"/>
      <stop offset="0" stop-color="#077fba"/>
      <stop offset="1" stop-color="#0983c1"/>
      <stop offset="1" stop-color="#0984c3"/>
    </linearGradient>
    <path fill="url(#Z)" fill-rule="evenodd" d="M2842 2019s-8 17-8 38h114l4-18-31-20h-79z" clip-rule="evenodd"/>
    <linearGradient id="aa" x1="2843" x2="2939" y1="2018" y2="2074" gradientUnits="userSpaceOnUse">
      <stop offset="0" stop-color="#014d77"/>
      <stop offset="0" stop-color="#015787"/>
      <stop offset="0" stop-color="#006da7"/>
      <stop offset="0" stop-color="#007abb"/>
      <stop offset="1" stop-color="#007fc2"/>
      <stop offset="1" stop-color="#0381c2"/>
      <stop offset="1" stop-color="#0984c3"/>
    </linearGradient>
    <path fill="url(#aa)" d="M2920 2021l30 19-3 15h-111c0-17 6-30 7-34h77m1-2h-79s-8 17-8 38h114l4-18-31-20z"/>
    <linearGradient id="ab" x1="2840" x2="2908" y1="2140" y2="1952" gradientUnits="userSpaceOnUse">
      <stop offset="0" stop-color="#014d77"/>
      <stop offset="0" stop-color="#014d77"/>
      <stop offset="0" stop-color="#01517c"/>
      <stop offset="0" stop-color="#03608f"/>
      <stop offset="0" stop-color="#067db6"/>
      <stop offset="0" stop-color="#077fba"/>
      <stop offset="0" stop-color="#0983c1"/>
      <stop offset="1" stop-color="#0984c3"/>
    </linearGradient>
    <path fill="url(#ab)" fill-rule="evenodd" d="M2950 1986c-4-12-12-21-23-27-10-4-22-7-36-7-38 0-65 20-82 50-7 13-12 28-15 44-9 56 8 95 69 95 24 0 44-3 61-7l11-50c-17 6-36 11-53 11-20 0-34-12-35-39 0-21 7-37 7-37 4-16 16-27 31-27 9 0 16 3 18 11 1 4 1 9-1 16l46 38 5-22c3-19 2-36-3-49z" clip-rule="evenodd"/>
    <linearGradient id="ac" x1="2890" x2="2858" y1="2140" y2="1956" gradientUnits="userSpaceOnUse">
      <stop offset="0" stop-color="#007fc2"/>
      <stop offset="0" stop-color="#0381c2"/>
      <stop offset="1" stop-color="#0984c3"/>
    </linearGradient>
    <path fill="url(#ac)" d="M2891 1953c13 0 25 3 35 8s18 14 22 25c5 13 6 29 3 49l-4 19-43-36c1-6 2-11 1-15v-1c-3-8-9-12-20-12-16 0-28 11-33 29 0 1-7 17-7 37v1c2 26 15 40 37 40 17 0 34-5 51-11l-10 46c-21 5-40 8-60 8-25 0-44-7-55-21-13-16-17-40-12-73 3-16 8-31 15-43 17-32 45-50 80-50m0-1c-38 0-65 20-82 50-7 13-12 28-15 44-9 56 8 95 69 95 24 0 44-3 61-7l11-50c-17 6-36 11-53 11-20 0-34-12-35-39 0-21 7-37 7-37 4-16 16-27 31-27 9 0 16 3 18 11 1 4 1 9-1 16l46 38 5-22c3-19 2-36-3-49-4-12-12-21-23-27-10-4-22-7-36-7z"/>
  </g>
</svg>
