<?xml version="1.0" encoding="utf-8"?>
<!-- Generator: Adobe Illustrator 19.0.0, SVG Export Plug-In . SVG Version: 6.00 Build 0)  -->
<svg version="1.1" id="Layer_1" xmlns="http://www.w3.org/2000/svg" xmlns:xlink="http://www.w3.org/1999/xlink" x="0px" y="0px"
	 viewBox="0 0 167 155" style="enable-background:new 0 0 167 155;" xml:space="preserve">
<style type="text/css">
	.st0{fill:#999999;}
	.st1{fill:#FFFFFF;}
</style>
<g>
	<circle class="st0" cx="87.5" cy="77.2" r="63.8"/>
	<g>
		<path class="st1" d="M60.1,62.5c0-7.2,2.6-12.6,7.9-16.2c5.3-3.7,11.7-5.5,19.4-5.5c7.8,0,14.4,1.8,19.7,5.3
			c5.3,3.5,7.8,8.9,7.8,16.2c0,2.7-0.4,5.2-1.2,7.3c-0.8,2.1-2,3.8-3.6,5.2c-1.6,1.3-3,2.4-4.4,3.2c-1.3,0.8-3,1.6-5,2.5
			c-2,0.9-3.4,1.5-4.1,1.9c-2.3,1.1-3.9,2.5-4.8,4.1c-0.9,1.6-1.3,4.2-1.3,7.6L79.1,94c0-4.4,0.6-8.1,1.7-11
			c1.2-2.9,2.5-4.9,4.1-6.2c1.6-1.3,3.8-2.5,6.6-3.6c0.5-0.3,1.5-0.7,2.7-1.2c1.3-0.5,2.2-0.9,2.8-1.2c0.6-0.3,1.3-0.8,2.3-1.3
			c0.9-0.6,1.6-1.2,2-1.8c0.4-0.6,0.8-1.4,1.2-2.3c0.3-0.9,0.5-2,0.5-3.1c0-7.6-5.3-11.4-15.9-11.4c-4.1,0-7.8,1-11,3
			c-3.2,2-4.9,4.9-5,8.6H60.1z M81.3,100.1c2.4-1.2,4.8-1.2,7.2,0c2.4,1.2,3.6,3.3,3.6,6.4c0,2.9-1.2,5-3.6,6.2
			c-2.4,1.2-4.8,1.2-7.2,0c-2.4-1.2-3.6-3.3-3.6-6.2C77.7,103.5,78.9,101.3,81.3,100.1z"/>
	</g>
</g>
</svg>
